<svg xmlns="http://www.w3.org/2000/svg" xmlns:xlink="http://www.w3.org/1999/xlink" viewBox="0 0 350 330">
  <g opacity="0">
    <animate
      id="showSecondaryAward"
      begin="2s"
      dur="0.4s"
      attributeName="opacity"
      attributeType="CSS"
      to="1"
      fill="freeze"
    />
    <g id="secondaryAwardLeaf1">
      <path
        d="M263.47,206.82a2,2,0,0,1,3.15,2c-1,7-2.07,20.33,4.85,19.4,4.94-.66-16.65-31.53,19.32-38.16a2,2,0,0,1,2.18,2.89c-1.32,2.74-2.83,6.61-2.73,9.9a2,2,0,0,0,3.71,1c4.1-6.15,15.1-17.86,36.59-10.7a2,2,0,0,1,1.35,1.54c0.93,4.8,4.13,23.24-.29,28.72-5.09,6.31-15,4.14-16.18,10.25-1.3,6.91,7.51,4.82,13.42-.22a2,2,0,0,1,3.32,1.64c-0.25,5.45-2.18,14-11.12,18.69-13.78,7.21-23.48-7-25.19-3.88-2.59,4.66,7.94,8.47,13.78,10.18a2,2,0,0,1,.61,3.59c-10.52,7.74-29.13,10.28-37-5.41-8.3-16.59-12.93-12.49-18.19-20.38-5.71-8.57-4.33-22.54,8.38-31.05m29.4,32.47c0.5,2.73,5.2,3.51,8.35,2.94s8.47-3.83,8-6.56-6.62-3.9-9.78-3.33-7.05,4.22-6.55,6.95"
        fill="#e81a5a"
      >
        <animateTransform
          begin="showSecondaryAward.begin"
          dur="1.5s"
          attributeName="transform"
          type="rotate"
          values="3,270,247; -3,270,247; 3,270,247"
          repeatCount="indefinite"
        />
      </path>
      <path
        d="M263,327.88s-4.91-70.27,5.54-80.72"
        fill="none"
        stroke="#e81a5a"
        stroke-miterlimit="10"
        stroke-width="2"
      />
    </g>
    <g id="secondaryAwardClouds">
      <animate
        id="fadeSecondaryAwardClouds"
        begin="displaySecondaryAwardParachuteWithSuitcase.begin + 0.6s"
        dur="0.3s"
        attributeName="opacity"
        attributeType="CSS"
        values="1; 0"
        fill="freeze"
      />
      <g id="secondaryAwardCloud1">
        <animateMotion
          id="secondaryAwardCloudIn1"
          begin="showSecondaryAward.begin"
          dur="0.3s"
          values="50,0; 0,0"
          calcMode="spline"
          keySplines="0,0,0.58,1"
          fill="freeze"
        />
        <animateMotion
          begin="fadeSecondaryAwardClouds.begin"
          dur="0.3s"
          values="0,0; 0,-50"
          calcMode="spline"
          keySplines="0.8,0.17,0.83,0.67"
          fill="freeze"
        />
        <line
          x1="65.43"
          y1="77.72"
          x2="105.21"
          y2="77.72"
          fill="none"
          stroke="#fff"
          stroke-linecap="round"
          stroke-miterlimit="10"
          stroke-width="2"
        />
        <g>
          <path
            d="M85.22,67.45H57.86a12.4,12.4,0,1,0-24.8,0H15.13"
            fill="none"
            stroke="#fff"
            stroke-linecap="round"
            stroke-miterlimit="10"
            stroke-width="2"
          />
          <line
            x1="93.48"
            y1="67.45"
            x2="115.68"
            y2="67.45"
            fill="none"
            stroke="#fff"
            stroke-linecap="round"
            stroke-miterlimit="10"
            stroke-width="2"
          />
        </g>
      </g>
      <g id="secondaryAwardCloud2">
        <animateMotion
          begin="showSecondaryAward.begin"
          dur="0.3s"
          values="50,0; 0,0"
          calcMode="spline"
          keySplines="0,0,0.58,1"
          fill="freeze"
        />
        <animateMotion
          begin="fadeSecondaryAwardClouds.begin"
          dur="0.3s"
          values="0,0; 0,-70"
          calcMode="spline"
          keySplines="0.8,0.17,0.83,0.67"
          fill="freeze"
        />
        <path
          d="M235.77,119H216.32a35.49,35.49,0,0,0-68-13.69A26.34,26.34,0,0,0,135.43,102a26.72,26.72,0,0,0-24.8,17H95.48a10.49,10.49,0,0,0,0,21h140.3a10.49,10.49,0,0,0,0-21"
          fill="#fff"
        />
        <line
          x1="272.13"
          y1="145.27"
          x2="311.9"
          y2="145.27"
          fill="none"
          stroke="#fff"
          stroke-linecap="round"
          stroke-miterlimit="10"
          stroke-width="2"
        />
        <line
          x1="300.17"
          y1="135"
          x2="322.37"
          y2="135"
          fill="none"
          stroke="#fff"
          stroke-linecap="round"
          stroke-miterlimit="10"
          stroke-width="2"
        />
      </g>
    </g>
    <g id="secondaryAwardParachuteWithSuitcase" opacity="0">
      <set
        id="displaySecondaryAwardParachuteWithSuitcase"
        begin="secondaryAwardCloudIn1.end"
        dur="indefinite"
        attributeName="opacity"
        to="1"
      />
      <animateTransform
        begin="displaySecondaryAwardParachuteWithSuitcase.begin"
        dur="1.63s"
        attributeName="transform"
        type="scale"
        values="0; 0.2; 0.2; 0.5; 0.5; 1; 1"
        keyTimes="0; 0.1; 0.22; 0.49; 0.55; 0.8; 1"
        fill="freeze"
        additive="sum"
      />
      <animateTransform
        attributeName="transform"
        type="rotate"
        begin="displaySecondaryAwardParachuteWithSuitcase.begin"
        dur="1.63s"
        values="
          30,56,300;
          30,56,300;
          -30,56,300;
          -30,56,300;
          20,56,300;
          18,56,300;
          -6,56,300;
          -6,56,300;
          0,56,300
        "
        keyTimes="0; 0.1; 0.32; 0.39; 0.57; 0.7; 0.87; 0.94; 1"
        fill="freeze"
        additive="sum"
      />
      <animateMotion
        begin="displaySecondaryAwardParachuteWithSuitcase.begin"
        dur="1.63s"
        values="
          195, 80;
          183, 35;
          30, 30;
          30, 30;
          185, 30;
          165, 80
        "
        keyTimes="0; 0.1; 0.49; 0.61; 0.8; 1"
        fill="freeze"
        additive="sum"
      />
      <path
        d="M93.89 247.88C94.8254 247.877 95.7217 247.505 96.3832 246.843C97.0446 246.182 97.4174 245.285 97.42 244.35V239.28C97.42 238.344 97.0481 237.446 96.3861 236.784C95.7241 236.122 94.8262 235.75 93.89 235.75C92.9538 235.75 92.0559 236.122 91.3939 236.784C90.7319 237.446 90.36 238.344 90.36 239.28V244.35C90.3653 245.285 90.7389 246.179 91.3997 246.84C92.0606 247.501 92.9554 247.875 93.89 247.88V247.88Z"
        fill="#A67EE5"
        stroke="white"
        stroke-width="2"
        stroke-miterlimit="10"
      />
      <path
        d="M18.35 247.88C19.2854 247.877 20.1817 247.505 20.8432 246.843C21.5046 246.182 21.8774 245.285 21.88 244.35V239.28C21.88 238.344 21.5081 237.446 20.8461 236.784C20.1841 236.122 19.2862 235.75 18.35 235.75C17.4138 235.75 16.5159 236.122 15.8539 236.784C15.1919 237.446 14.82 238.344 14.82 239.28V244.35C14.8226 245.285 15.1954 246.182 15.8568 246.843C16.5183 247.505 17.4146 247.877 18.35 247.88V247.88Z"
        fill="#A67EE5"
        stroke="white"
        stroke-width="2"
        stroke-miterlimit="10"
      />
      <path
        d="M87.42 150.51H12.92C6.65157 150.51 1.57001 155.592 1.57001 161.86V227.94C1.57001 234.208 6.65157 239.29 12.92 239.29H87.42C93.6884 239.29 98.77 234.208 98.77 227.94V161.86C98.77 155.592 93.6884 150.51 87.42 150.51Z"
        fill="#A67EE5"
        stroke="white"
        stroke-width="2"
        stroke-miterlimit="10"
      />
      <path
        d="M41.26 138.15H73.66C74.7413 138.153 75.7775 138.583 76.5421 139.348C77.3067 140.112 77.7374 141.149 77.74 142.23V158.23C77.74 158.546 77.6146 158.848 77.3915 159.071C77.1683 159.295 76.8656 159.42 76.55 159.42H73.85C73.5344 159.42 73.2317 159.295 73.0085 159.071C72.7854 158.848 72.66 158.546 72.66 158.23V143.86C72.66 143.523 72.5262 143.2 72.288 142.962C72.0499 142.724 71.7268 142.59 71.39 142.59H43.53C43.1932 142.59 42.8701 142.724 42.632 142.962C42.3938 143.2 42.26 143.523 42.26 143.86V158.24C42.26 158.556 42.1346 158.858 41.9115 159.081C41.6883 159.305 41.3856 159.43 41.07 159.43H38.37C38.0544 159.43 37.7517 159.305 37.5285 159.081C37.3054 158.858 37.18 158.556 37.18 158.24V142.24C37.1826 141.158 37.613 140.121 38.3773 139.354C39.1416 138.588 40.1778 138.155 41.26 138.15Z"
        fill="#A67EE5"
        stroke="white"
        stroke-width="2"
        stroke-miterlimit="10"
      />
      <path
        d="M27.34 239.29H101.84C104.848 239.282 107.73 238.084 109.857 235.957C111.984 233.83 113.182 230.948 113.19 227.94V161.86C113.182 158.852 111.984 155.97 109.857 153.843C107.73 151.716 104.848 150.518 101.84 150.51H27.34C24.334 150.521 21.4542 151.72 19.3295 153.847C17.2049 155.973 16.0079 158.854 16 161.86V227.94C16.0105 230.945 17.2083 233.825 19.3324 235.951C21.4565 238.076 24.3348 239.277 27.34 239.29V239.29Z"
        fill="#A67EE5"
        stroke="white"
        stroke-width="2"
        stroke-miterlimit="10"
      />
      <path
        d="M96.22 171.43H32.97"
        stroke="white"
        stroke-width="2"
        stroke-miterlimit="10"
        stroke-linecap="round"
      />
      <path
        d="M96.22 194.9H32.97"
        stroke="white"
        stroke-width="2"
        stroke-miterlimit="10"
        stroke-linecap="round"
      />
      <path
        d="M96.22 218.38H32.97"
        stroke="white"
        stroke-width="2"
        stroke-miterlimit="10"
        stroke-linecap="round"
      />
      <path
        d="M10.12 172.68H10.79V217.14H10.12C9.18897 217.137 8.29668 216.767 7.63741 216.11C6.97813 215.452 6.60528 214.561 6.60001 213.63V176.2C6.60001 175.266 6.97085 174.371 7.63098 173.711C8.29111 173.051 9.18643 172.68 10.12 172.68V172.68Z"
        fill="none"
        stroke="white"
        stroke-width="2"
        stroke-miterlimit="10"
      />
      <path
        d="M57.46 137.86L1.87 58.03"
        stroke="white"
        stroke-width="2"
        stroke-linecap="round"
        stroke-linejoin="round"
      />
      <path
        d="M57.46 137.86L38.93 58.03"
        stroke="white"
        stroke-width="2"
        stroke-linecap="round"
        stroke-linejoin="round"
      />
      <path
        d="M75.99 58.03L57.46 137.86"
        stroke="white"
        stroke-width="2"
        stroke-linecap="round"
        stroke-linejoin="round"
      />
      <path
        d="M113.04 58.03L57.46 137.86"
        stroke="white"
        stroke-width="2"
        stroke-linecap="round"
        stroke-linejoin="round"
      />
      <path
        d="M57.46 2.44C72.1903 2.4506 86.314 8.30827 96.7281 18.7261C107.142 29.1439 112.995 43.2697 113 58C113 51.24 104.7 45.75 94.47 45.75C84.24 45.75 76.16 51.1 75.95 57.75C75.95 57.83 75.95 57.92 75.95 58.01C75.95 51.25 67.65 45.76 57.42 45.76C47.19 45.76 38.88 51.25 38.88 58.01C38.88 57.92 38.88 57.84 38.88 57.75C38.66 51.11 30.46 45.75 20.36 45.75C10.26 45.75 1.84 51.24 1.84 58C1.83868 50.6994 3.27567 43.4702 6.06886 36.7251C8.86206 29.98 12.9567 23.8513 18.119 18.689C23.2813 13.5267 29.41 9.43206 36.1551 6.63886C42.9002 3.84567 50.1294 2.40869 57.43 2.41L57.46 2.44ZM57.43 0.75C42.2582 0.776465 27.7159 6.81792 16.9915 17.5498C6.26714 28.2817 0.235862 42.8282 0.220001 58C0.220001 58.218 0.262936 58.4339 0.346359 58.6353C0.429782 58.8367 0.552062 59.0197 0.706207 59.1738C0.860353 59.3279 1.04335 59.4502 1.24475 59.5336C1.44615 59.6171 1.66201 59.66 1.88 59.66C2.098 59.66 2.31386 59.6171 2.51526 59.5336C2.71666 59.4502 2.89966 59.3279 3.0538 59.1738C3.20795 59.0197 3.33021 58.8367 3.41364 58.6353C3.49706 58.4339 3.53999 58.218 3.53999 58C3.53999 52.16 11.11 47.41 20.41 47.41C29.52 47.41 37.09 52.07 37.27 57.79V58C37.27 58.4403 37.4449 58.8625 37.7562 59.1738C38.0675 59.4851 38.4897 59.66 38.93 59.66C39.3703 59.66 39.7925 59.4851 40.1038 59.1738C40.4151 58.8625 40.59 58.4403 40.59 58C40.59 52.16 48.16 47.41 57.46 47.41C66.76 47.41 74.33 52.16 74.33 58C74.33 58.4403 74.5049 58.8625 74.8162 59.1738C75.1275 59.4851 75.5497 59.66 75.99 59.66C76.4303 59.66 76.8525 59.4851 77.1638 59.1738C77.4751 58.8625 77.65 58.4403 77.65 58V57.79C77.83 52.06 85.39 47.4 94.51 47.4C103.81 47.4 111.38 52.15 111.38 57.99C111.38 58.4303 111.555 58.8525 111.866 59.1638C112.178 59.4751 112.6 59.65 113.04 59.65C113.48 59.65 113.902 59.4751 114.214 59.1638C114.525 58.8525 114.7 58.4303 114.7 57.99C114.687 42.8139 108.654 28.2628 97.9243 17.5298C87.1951 6.7968 72.6461 0.758532 57.47 0.739998"
        fill="white"
      />
      <path
        d="M57.46 2.44C67.38 2.44 75.46 23.34 76 57.77C76.21 51.12 84.41 45.77 94.52 45.77C104.63 45.77 113 51.27 113 58C113 43.2566 107.143 29.1171 96.7181 18.6919C86.2929 8.26679 72.1534 2.41 57.41 2.41"
        fill="#E81A5A"
      />
      <path
        d="M57.45 2.44C42.7127 2.44 28.5788 8.29299 18.1561 18.7119C7.73337 29.1309 1.8753 43.2627 1.87 58C1.87 51.24 10.17 45.75 20.39 45.75C30.61 45.75 38.69 51.1 38.91 57.75C39.43 23.32 47.52 2.43 57.44 2.43"
        fill="#FE6183"
      />
      <path
        d="M57.46 2.44C47.53 2.44 39.46 23.34 38.92 57.76C38.92 57.85 38.92 57.93 38.92 58.02C38.92 51.26 47.22 45.77 57.45 45.77C67.68 45.77 76 51.27 76 58C76 57.91 76 57.83 76 57.74C75.49 23.31 67.4 2.41 57.48 2.41"
        fill="#F7396B"
      />
    </g>
    <g id="secondaryAwardLeaf2">
      <animateTransform
        begin="showSecondaryAward.begin"
        dur="2.3s"
        attributeName="transform"
        type="rotate"
        values="5,245,328; -5,245,328; 5,245,328; 0,245,328; 5,245,328"
        repeatCount="indefinite"
      />
      <path
        d="M322.92,283.4a2.14,2.14,0,0,1,.55,2.17c-1.06,3.43-4.58,12.85-12.1,16.34-5.13,2.38-8.33-2.7-10.92.77s2.1,5,6.92,4.31a2.16,2.16,0,0,1,2.14,3.34A14.34,14.34,0,0,1,297.78,317c-10.84.27-12.55-11.58-14.57-10.19-2.72,1.89,1.27,6.55,4.39,9.57a2.16,2.16,0,0,1-1.3,3.71c-8.76.84-19.72-3.51-19.8-15-0.08-12.94-4.25-11.8-5.11-18.35-0.91-6.88,3.88-14.88,13.74-16.69a2.16,2.16,0,0,1,2.31,3.11c-2.41,4.73-6,12.6-2.82,12.56,3.46,0-1.58-22.58,28.43-15.26a2.16,2.16,0,0,1,1.09,3.54l-0.1.11a2.16,2.16,0,0,0,2.41,3.45c3.66-1.52,9.16-1.27,16.47,5.84"
        fill="#fe6183"
      />
      <path
        d="M245.13,327.88s3.48-30.11,21.7-30.11"
        fill="none"
        stroke="#fe6183"
        stroke-miterlimit="10"
        stroke-width="2"
      />
    </g>
    <line
      id="secondaryAwardGround"
      x1="0"
      y1="329"
      x2="0"
      y2="329"
      fill="none"
      stroke="#fff"
      stroke-width="2"
    >
      <animate
        id="showSecondaryAwardGround"
        begin="showSecondaryAward.begin + 0.1s"
        dur="0.1s"
        attributeName="x2"
        to="285"
        fill="freeze"
      />
      <animate
        begin="showSecondaryAwardGround.end"
        dur="0.1s"
        attributeName="x1"
        to="155"
        fill="freeze"
      />
    </line>
  </g>
</svg>
